<svg xmlns="http://www.w3.org/2000/svg" width="1920" height="1080"><path fill="#1a1a1a" d="M.232.232h1919.535v1079.535H.233z"/><path d="M1150.715 506.28c0 32.287-26.174 58.465-58.465 58.465-32.289 0-58.464-26.178-58.464-58.464s26.175-58.465 58.464-58.465c32.291 0 58.465 26.179 58.465 58.465M1014.401 506.28c0 32.287-25.464 58.465-56.874 58.465H826.16c-31.41 0-56.874-26.178-56.874-58.464s25.464-58.465 56.874-58.465h131.367c31.41 0 56.874 26.179 56.874 58.465" fill="#e91d24"/><path d="M749.792 631.332c.165.55.77.797 1.402.797.66 0 1.265-.275 1.458-.797l5.582-18.288c0-.082.028-.137.028-.192 0-.55-.77-.99-1.43-.99-.385 0-.688.165-.825.522l-4.813 16.335-4.84-16.335c-.11-.357-.44-.522-.852-.522-.605 0-1.403.385-1.403.962 0 .083.028.138.055.22zm10.89-.193c0 .55.577.825 1.155.825.577 0 1.155-.275 1.155-.825v-18.48c0-.55-.578-.797-1.155-.797-.578 0-1.155.247-1.155.797zm7.26-19.277c-.633 0-1.045.385-1.045.797v18.508c0 .412.412.797 1.045.797h4.867c3.328 0 5.94-1.622 5.94-5.995v-8.112c0-4.373-2.612-5.995-5.94-5.995zm4.867 2.09c2.255 0 3.63 1.237 3.63 3.905v8.112c0 2.668-1.375 3.905-3.63 3.905h-3.602v-15.922zm11.963 0h8.525c.495 0 .797-.495.797-1.073 0-.495-.247-1.017-.797-1.017h-9.79c-.523 0-1.045.275-1.045.825v18.452c0 .55.522.825 1.045.825h9.79c.55 0 .797-.522.797-1.017 0-.578-.302-1.073-.797-1.073h-8.525v-7.012h4.29c.55 0 .797-.495.797-.935 0-.523-.302-.99-.797-.99h-4.29zm17.242 18.177c3.328 0 5.94-1.622 5.94-5.995v-8.277c0-4.373-2.612-5.995-5.94-5.995-3.327 0-5.912 1.622-5.912 5.995v8.277c0 4.373 2.585 5.995 5.912 5.995m3.63-5.995c0 2.668-1.375 3.905-3.63 3.905s-3.602-1.237-3.602-3.905v-8.277c0-2.668 1.347-3.905 3.602-3.905s3.63 1.237 3.63 3.905zm11.523 5.005c0 .55.577.825 1.155.825.577 0 1.155-.275 1.155-.825v-7.122h3.712c3.328 0 5.94-1.65 5.94-5.968v-.247c0-4.345-2.585-5.94-5.83-5.94h-5.197c-.578 0-.935.385-.935.797zm6.022-17.187c2.255 0 3.63 1.237 3.63 3.905v.33c0 2.64-1.375 3.905-3.63 3.905h-3.712v-8.14zm18.507 18.012c.495 0 .742-.522.742-1.045 0-.522-.247-1.045-.742-1.045h-7.508V612.66c0-.55-.577-.797-1.155-.797-.577 0-1.155.247-1.155.797v18.48c0 .55.523.825 1.045.825zm2.97 0c.412 0 .742-.165.852-.522l1.21-4.098h7.233l1.21 4.098c.11.357.44.522.825.522.66 0 1.43-.44 1.43-.99 0-.055-.028-.11-.028-.192l-5.61-18.288c-.165-.522-.797-.797-1.43-.797-.632 0-1.265.247-1.43.797l-5.61 18.288c-.027.082-.055.137-.055.22 0 .577.798.962 1.403.962m2.585-6.517l3.107-10.34 3.053 10.34zm15.345 5.692c0 .55.577.825 1.155.825.577 0 1.155-.275 1.155-.825v-6.957c0-.11 0-.193.055-.275l5.692-10.615c.083-.193.11-.358.11-.468 0-.577-.77-.962-1.375-.962-.357 0-.605.192-.825.605l-4.812 9.432-4.84-9.432c-.22-.413-.44-.605-.825-.605-.578 0-1.375.385-1.375.962 0 .11.027.275.11.468l5.692 10.615a.465.465 0 01.083.275zm12.897-17.187h8.525c.495 0 .798-.495.798-1.073 0-.495-.248-1.017-.798-1.017h-9.79c-.522 0-1.045.275-1.045.825v18.452c0 .55.523.825 1.045.825h9.79c.55 0 .798-.522.798-1.017 0-.578-.303-1.073-.798-1.073h-8.525v-7.012h4.29c.55 0 .798-.495.798-.935 0-.523-.303-.99-.798-.99h-4.29zm11.825 17.187c0 .55.578.825 1.155.825.578 0 1.155-.275 1.155-.825v-8.085h3.163l4.152 8.058c.248.467.578.907 1.045.907.66 0 1.375-.577 1.375-1.182a.752.752 0 00-.11-.385l-4.07-7.728c2.31-.467 4.098-2.007 4.098-5.362 0-4.18-2.778-5.5-6.105-5.5h-5.033c-.495.027-.825.385-.825.797zm5.858-17.187c2.282 0 3.795.99 3.795 3.575 0 2.612-1.513 3.602-3.795 3.602h-3.548v-7.177zm14.575 17.215c0 .55.577.797 1.155.797.577 0 1.155-.247 1.155-.797v-8.305h4.29c.55 0 .797-.495.797-.935 0-.523-.275-.99-.797-.99h-4.29v-6.985h8.415c.522 0 .797-.495.797-1.073 0-.495-.247-1.017-.797-1.017h-9.68c-.523 0-1.045.275-1.045.825zm19.002.962c3.328 0 5.94-1.622 5.94-5.995v-8.277c0-4.373-2.612-5.995-5.94-5.995-3.327 0-5.912 1.622-5.912 5.995v8.277c0 4.373 2.585 5.995 5.912 5.995m3.63-5.995c0 2.668-1.375 3.905-3.63 3.905s-3.602-1.237-3.602-3.905v-8.277c0-2.668 1.347-3.905 3.602-3.905s3.63 1.237 3.63 3.905zm6.023 5.005c0 .55.577.825 1.155.825.577 0 1.155-.275 1.155-.825v-8.085h3.162l4.153 8.058c.247.467.577.907 1.045.907.66 0 1.375-.577 1.375-1.182a.752.752 0 00-.11-.385l-4.07-7.728c2.31-.467 4.097-2.007 4.097-5.362 0-4.18-2.777-5.5-6.105-5.5h-5.032c-.495.027-.825.385-.825.797zm5.857-17.187c2.283 0 3.795.99 3.795 3.575 0 2.612-1.512 3.602-3.795 3.602h-3.547v-7.177zm14.491 18.012c.413 0 .743-.165.853-.522l1.21-4.098h7.232l1.21 4.098c.11.357.44.522.825.522.66 0 1.43-.44 1.43-.99 0-.055-.027-.11-.027-.192l-5.61-18.288c-.165-.522-.798-.797-1.43-.797-.633 0-1.265.247-1.43.797l-5.61 18.288c-.028.082-.055.137-.055.22 0 .577.797.962 1.402.962m2.585-6.517l3.108-10.34 3.052 10.34zm12.623 5.692c0 .55.577.825 1.155.825.577 0 1.155-.275 1.155-.825v-8.085h3.162l4.153 8.058c.247.467.577.907 1.045.907.66 0 1.375-.577 1.375-1.182a.752.752 0 00-.11-.385l-4.07-7.728c2.31-.467 4.097-2.007 4.097-5.362 0-4.18-2.777-5.5-6.105-5.5h-5.032c-.495.027-.825.385-.825.797zm5.857-17.187c2.283 0 3.795.99 3.795 3.575 0 2.612-1.512 3.602-3.795 3.602h-3.547v-7.177zm8.085-2.09c-.55 0-.825.55-.825 1.045 0 .577.303 1.1.825 1.1h4.455v17.132c0 .55.578.825 1.155.825.578 0 1.155-.275 1.155-.825v-17.132h4.428c.55 0 .825-.55.825-1.1 0-.523-.275-1.045-.825-1.045zm14.355 19.277c0 .55.578.825 1.155.825.578 0 1.155-.275 1.155-.825v-18.48c0-.55-.577-.797-1.155-.797-.577 0-1.155.247-1.155.797zm10.89-1.1c-3.245 0-3.877-2.227-4.702-2.227-.523 0-1.018.715-1.018 1.265 0 1.182 2.283 3.107 5.83 3.107 3.493 0 6.023-1.842 6.023-5.775 0-7.48-9.048-5.06-9.048-9.707 0-2.118 1.705-2.86 3.74-2.86 2.393 0 3.19 1.045 3.823 1.045.632 0 .99-.825.99-1.265 0-1.238-2.86-1.815-4.813-1.815-2.722 0-6.05 1.072-6.05 5.115 0 6.682 9.048 4.18 9.048 9.707 0 2.283-1.513 3.41-3.823 3.41m8.36-18.177c-.55 0-.825.55-.825 1.045 0 .577.303 1.1.825 1.1h4.455v17.132c0 .55.578.825 1.155.825.578 0 1.155-.275 1.155-.825v-17.132h4.428c.55 0 .825-.55.825-1.1 0-.523-.275-1.045-.825-1.045zm18.865 18.177c-3.245 0-3.877-2.227-4.702-2.227-.523 0-1.018.715-1.018 1.265 0 1.182 2.283 3.107 5.83 3.107 3.493 0 6.023-1.842 6.023-5.775 0-7.48-9.048-5.06-9.048-9.707 0-2.118 1.705-2.86 3.74-2.86 2.393 0 3.19 1.045 3.823 1.045.632 0 .99-.825.99-1.265 0-1.238-2.86-1.815-4.813-1.815-2.722 0-6.05 1.072-6.05 5.115 0 6.682 9.048 4.18 9.048 9.707 0 2.283-1.513 3.41-3.823 3.41m14.63 1.128c0 .412.413.797 1.045.797h5.363c3.052 0 5.445-1.512 5.445-5.72v-.495c0-2.805-1.128-3.987-2.833-4.675 1.43-.605 2.338-2.2 2.338-4.51 0-3.85-2.558-4.702-5.583-4.702h-4.73c-.522 0-1.045.275-1.045.825zm2.31-1.293v-7.837h3.713c2.2 0 3.52.962 3.52 3.602v.468c0 2.612-1.32 3.767-3.52 3.767zm0-15.922h3.355c2.008 0 3.383.715 3.383 2.942 0 2.283-1.073 3.218-3.3 3.218h-3.438zm16.83 17.187c0 .55.578.825 1.155.825.578 0 1.155-.275 1.155-.825v-6.957c0-.11 0-.193.055-.275l5.693-10.615c.082-.193.11-.358.11-.468 0-.577-.77-.962-1.375-.962-.358 0-.605.192-.825.605l-4.813 9.432-4.84-9.432c-.22-.413-.44-.605-.825-.605-.577 0-1.375.385-1.375.962 0 .11.028.275.11.468l5.693 10.615a.465.465 0 01.082.275zm16.005.825c.413 0 .743-.165.853-.522l1.21-4.098h7.232l1.21 4.098c.11.357.44.522.825.522.66 0 1.43-.44 1.43-.99 0-.055-.027-.11-.027-.192l-5.61-18.288c-.165-.522-.798-.797-1.43-.797-.633 0-1.265.247-1.43.797l-5.61 18.288c-.028.082-.055.137-.055.22 0 .577.797.962 1.402.962m2.585-6.517l3.108-10.34 3.052 10.34zm12.623 5.692c0 .55.577.825 1.155.825.577 0 1.155-.275 1.155-.825v-8.085h3.162l4.153 8.058c.247.467.577.907 1.045.907.66 0 1.375-.577 1.375-1.182a.752.752 0 00-.11-.385l-4.07-7.728c2.31-.467 4.097-2.007 4.097-5.362 0-4.18-2.777-5.5-6.105-5.5h-5.032c-.495.027-.825.385-.825.797zm5.857-17.187c2.283 0 3.795.99 3.795 3.575 0 2.612-1.512 3.602-3.795 3.602h-3.547v-7.177zm8.085-2.09c-.55 0-.825.55-.825 1.045 0 .577.303 1.1.825 1.1h4.455v17.132c0 .55.578.825 1.155.825.578 0 1.155-.275 1.155-.825v-17.132h4.428c.55 0 .825-.55.825-1.1 0-.523-.275-1.045-.825-1.045zm14.354 19.277c0 .55.578.825 1.155.825.578 0 1.155-.275 1.155-.825v-18.48c0-.55-.577-.797-1.155-.797-.577 0-1.155.247-1.155.797zm10.89-1.1c-3.245 0-3.877-2.227-4.702-2.227-.523 0-1.018.715-1.018 1.265 0 1.182 2.283 3.107 5.83 3.107 3.493 0 6.023-1.842 6.023-5.775 0-7.48-9.048-5.06-9.048-9.707 0-2.118 1.705-2.86 3.74-2.86 2.393 0 3.19 1.045 3.823 1.045.632 0 .99-.825.99-1.265 0-1.238-2.86-1.815-4.813-1.815-2.722 0-6.05 1.072-6.05 5.115 0 6.682 9.048 4.18 9.048 9.707 0 2.283-1.513 3.41-3.823 3.41m8.36-18.177c-.55 0-.825.55-.825 1.045 0 .577.303 1.1.825 1.1h4.455v17.132c0 .55.578.825 1.155.825.578 0 1.155-.275 1.155-.825v-17.132h4.428c.55 0 .825-.55.825-1.1 0-.523-.275-1.045-.825-1.045zm18.865 18.177c-3.245 0-3.877-2.227-4.702-2.227-.523 0-1.018.715-1.018 1.265 0 1.182 2.283 3.107 5.83 3.107 3.493 0 6.023-1.842 6.023-5.775 0-7.48-9.048-5.06-9.048-9.707 0-2.118 1.705-2.86 3.74-2.86 2.393 0 3.19 1.045 3.823 1.045.632 0 .99-.825.99-1.265 0-1.238-2.86-1.815-4.813-1.815-2.722 0-6.05 1.072-6.05 5.115 0 6.682 9.048 4.18 9.048 9.707 0 2.283-1.513 3.41-3.823 3.41" fill="#e6e6e6"/><g fill="#fff"><path d="M797.743 477.428c-.09-.26-.178-.44-.178-.707 0-1.861 2.568-3.102 4.515-3.102 1.331 0 2.391.533 2.748 1.688l15.587 52.61 15.499-52.61c.444-1.155 1.416-1.688 2.657-1.688 2.128 0 4.604 1.421 4.604 3.188 0 .18-.086.36-.086.62l-17.983 58.904c-.616 1.681-2.566 2.568-4.69 2.568-2.037 0-3.988-.8-4.518-2.568zM858.082 480.615c0 2.221-2.037 4.255-4.519 4.255-2.566 0-4.605-2.034-4.605-4.255 0-2.206 2.04-4.154 4.605-4.154 2.482 0 4.52 1.948 4.52 4.154m-.797 18.339v36.757c0 1.326-1.685 2.654-3.723 2.654-2.036 0-3.63-1.328-3.63-2.654v-36.758c0-1.506 1.594-2.573 3.63-2.573 2.038 0 3.723 1.067 3.723 2.574M900.959 473.619v62.092c0 1.327-1.504 2.654-3.632 2.654-1.86 0-3.363-1.327-3.363-2.654v-3.548c-1.86 3.636-6.643 6.91-12.224 6.91-8.326 0-15.588-8.237-15.588-17.18v-9.035c0-9.295 7.175-17.005 15.854-17.005 5.669 0 9.653 3.28 11.6 6.728V473.62c0-1.5 1.684-2.566 3.721-2.566 2.128 0 3.632 1.066 3.632 2.566m-27.454 48.275c0 5.307 4.604 10.536 10.005 10.536 5.759 0 10.096-5.755 10.096-8.141v-11.431c0-6.47-5.047-10.363-10.006-10.363-5.581 0-10.095 5.134-10.095 10.363zM944.556 512.151c0 7.083-3.897 7.349-7.882 7.349h-19.395v2.654c0 6.562 5.225 10.716 12.577 10.716 6.641 0 8.503-3.447 10.716-3.447 1.77 0 3.01 2.033 3.01 3.36 0 2.31-5.405 6.29-13.993 6.29-11.514 0-19.663-6.91-19.663-17.178v-9.304c0-9.029 7.883-16.739 17.625-16.739 9.033 0 17.005 6.815 17.005 16.299m-10.894 2.388c3.103 0 3.9-.534 3.9-2.828 0-5.229-4.252-10.01-10.1-10.01-5.58 0-10.183 4.249-10.183 9.65v3.188zM986.117 512.858v9.036c0 8.942-8.146 17.178-17.535 17.178-9.39 0-17.448-8.15-17.448-17.178v-9.036c0-9.036 7.882-17.005 17.448-17.005 9.389 0 17.535 7.709 17.535 17.005m-7.348 0c0-5.229-4.52-10.364-10.187-10.364-5.668 0-10.096 5.135-10.096 10.364v9.036c0 5.401 4.514 10.536 10.096 10.536 5.578 0 10.187-5.135 10.187-10.536zM1071.189 538.365c-1.861 0-3.721-.887-3.721-2.655v-59.523c0-1.327 1.15-2.568 3.011-2.568h16.737c10.454 0 18.78 5.135 18.78 19.134v.8c0 13.904-8.416 19.211-19.133 19.211h-11.957v22.946c0 1.768-1.86 2.655-3.717 2.655m3.717-58.01v26.214h11.957c7.262 0 11.69-4.075 11.69-12.577v-1.06c0-8.597-4.428-12.577-11.69-12.577zM1117.445 484.87c-2.568 0-4.605-2.034-4.605-4.255 0-2.207 2.037-4.154 4.605-4.154 2.48 0 4.517 1.947 4.517 4.154 0 2.22-2.037 4.255-4.517 4.255m-3.632 50.84v-36.757c0-1.506 1.594-2.574 3.632-2.574 2.036 0 3.721 1.068 3.721 2.574v36.758c0 1.327-1.685 2.655-3.721 2.655-2.038 0-3.632-1.328-3.632-2.655"/></g></svg>